<?xml version="1.0" encoding="UTF-8" standalone="no"?>
<!-- Created with Inkscape (http://www.inkscape.org/) -->

<svg
   width="200mm"
   height="200mm"
   viewBox="0 0 210 297"
   version="1.1"
   id="svg5"
   inkscape:export-filename="C:\Users\leand\Desktop\calculatrix\logo.png"
   inkscape:export-xdpi="162.56"
   inkscape:export-ydpi="162.56"
   inkscape:version="1.1.1 (3bf5ae0d25, 2021-09-20)"
   sodipodi:docname="logo.svg"
   xmlns:inkscape="http://www.inkscape.org/namespaces/inkscape"
   xmlns:sodipodi="http://sodipodi.sourceforge.net/DTD/sodipodi-0.dtd"
   xmlns:xlink="http://www.w3.org/1999/xlink"
   xmlns="http://www.w3.org/2000/svg"
   xmlns:svg="http://www.w3.org/2000/svg">
  <sodipodi:namedview
     id="namedview7"
     pagecolor="#ffffff"
     bordercolor="#999999"
     borderopacity="1"
     inkscape:pageshadow="0"
     inkscape:pageopacity="0"
     inkscape:pagecheckerboard="0"
     inkscape:document-units="mm"
     showgrid="false"
     inkscape:zoom="1.4823793"
     inkscape:cx="407.11578"
     inkscape:cy="549.45452"
     inkscape:window-width="1920"
     inkscape:window-height="1017"
     inkscape:window-x="-8"
     inkscape:window-y="-8"
     inkscape:window-maximized="1"
     inkscape:current-layer="layer1"
     inkscape:rotation="-90" />
  <defs
     id="defs2">
    <inkscape:path-effect
       effect="bspline"
       id="path-effect6844"
       is_visible="true"
       lpeversion="1"
       weight="33.333333"
       steps="2"
       helper_size="0"
       apply_no_weight="true"
       apply_with_weight="true"
       only_selected="false" />
    <clipPath
       clipPathUnits="userSpaceOnUse"
       id="clipPath2986">
      <use
         x="0"
         y="0"
         xlink:href="#g2982"
         id="use2988" />
    </clipPath>
  </defs>
  <g
     inkscape:label="Calque 1"
     inkscape:groupmode="layer"
     id="layer1">
    <rect
       style="fill:#990000;fill-opacity:1;stroke-width:0.392906"
       id="rect846"
       width="163.80157"
       height="16.433168"
       x="-254.38005"
       y="-58.222767"
       transform="rotate(-142.29344)"
       inkscape:transform-center-x="1.0602044"
       inkscape:transform-center-y="-0.49401081"
       ry="8.2165842"
       inkscape:export-filename="C:\Users\leand\Desktop\calculatrix\rect846.png"
       inkscape:export-xdpi="172.38994"
       inkscape:export-ydpi="172.38994" />
    <rect
       style="fill:#99ae01;fill-opacity:1;stroke-width:0.392906"
       id="rect928"
       width="163.80157"
       height="16.433168"
       x="-144.54625"
       y="161.07291"
       transform="rotate(-56.993506)"
       inkscape:transform-center-x="-0.90941854"
       inkscape:transform-center-y="-0.79515327"
       ry="8.2165842"
       inkscape:export-filename="C:\Users\leand\Desktop\calculatrix\rect846.png"
       inkscape:export-xdpi="172.38994"
       inkscape:export-ydpi="172.38994" />
    <ellipse
       style="fill:#990096;fill-opacity:1;stroke-width:0.313295"
       id="path1000"
       cx="-116.04241"
       cy="79.470535"
       rx="14.842861"
       ry="13.915182"
       transform="rotate(-100.09526)"
       inkscape:export-filename="C:\Users\leand\Desktop\calculatrix\rect846.png"
       inkscape:export-xdpi="172.38994"
       inkscape:export-ydpi="172.38994"
       inkscape:transform-center-x="8.3524495"
       inkscape:transform-center-y="-45.232159" />
    <a
       id="a3070"
       style="fill:#99c797;fill-opacity:1"
       transform="rotate(-100.09526,101.60259,152.69239)"
       inkscape:export-filename="C:\Users\leand\Desktop\calculatrix\rect846.png"
       inkscape:export-xdpi="172.38994"
       inkscape:export-ydpi="172.38994"
       inkscape:transform-center-x="42.785832"
       inkscape:transform-center-y="6.9889326">
      <g
         id="g2984"
         clip-path="url(#clipPath2986)"
         transform="translate(1.2182262,0.18741942)"
         style="fill:#99c797;fill-opacity:1">
        <g
           inkscape:label="Clip"
           id="g2982"
           style="fill:#99c797;fill-opacity:1">
          <path
             d="m 107.37505,95.481734 c -2.91942,-0.08139 -5.33482,0.629247 -6.07806,3.339559 l -0.96002,3.500817 4.20107,1.15204 c 3.26553,0.8955 5.26473,4.3672 4.41191,7.47711 l -2.55369,9.31235 c -0.69797,2.54526 0.93843,5.26366 3.5332,5.97522 l 9.02877,2.47592 c 2.5683,0.70429 4.68019,-1.07963 6.08689,-3.33714 1.6813,-2.70526 2.62796,-5.49989 2.55607,-9.32104 -0.0452,-2.53425 -0.80604,-5.22736 -3.53321,-5.97522 l -3.60974,-0.98988 -2.55368,9.31235 -1.20913,-0.33157 3.83291,-13.97723 c 0.74324,-2.71031 -0.90445,-4.245604 -3.52437,-5.972789 -2.69628,-1.794829 -5.56774,-2.535556 -9.62892,-2.640497 z m 14.36657,18.342196 c 0.26442,-0.96424 1.28434,-1.53451 2.28165,-1.26102 1.00614,0.27591 1.59489,1.27797 1.32809,2.2509 -0.26204,0.95556 -1.29317,1.53209 -2.29048,1.2586 -0.99494,-0.28216 -1.58368,-1.28424 -1.31926,-2.24848 z m -16.64712,6.54971 2.55607,-9.32104 c 0.70989,-2.58869 -0.89429,-5.25156 -3.5332,-5.97521 l -9.037592,-2.47835 c -2.568301,-0.70429 -5.075949,0.89638 -6.201623,3.30568 -1.378301,2.98449 -2.280873,6.37964 -2.547241,9.32346 -0.375442,4.13748 0.911949,5.2564 3.647936,6.00668 l 3.60974,0.98989 2.558452,-9.32973 1.209133,0.33157 -3.518468,12.83055 c -0.743237,2.71031 0.263293,5.54553 3.202782,7.14553 3.376291,1.8412 5.617331,2.49311 9.628921,2.6405 2.97881,0.10701 5.41582,-0.92461 6.16144,-3.64361 l 0.87902,-3.20546 -4.32463,-1.18593 c -3.13553,-0.85051 -5.15784,-4.2725 -4.29073,-7.43453 z m -12.806936,-2.8862 c -0.264422,0.96425 -1.284345,1.53451 -2.281655,1.26102 -1.003759,-0.28458 -1.594889,-1.27797 -1.328085,-2.2509 0.262038,-0.95556 1.293168,-1.53209 2.290482,-1.2586 0.99731,0.27349 1.58606,1.27555 1.319258,2.24848 z"
             id="path2390"
             style="fill:#99c797;fill-opacity:1;stroke-width:0.0907932" />
        </g>
      </g>
    </a>
  </g>
  <g
     inkscape:groupmode="layer"
     id="layer2"
     inkscape:label="Duke">
    <g
       id="g7912"
       transform="matrix(0.04349487,-0.02756131,0.02862169,0.03923851,112.57358,133.33224)"
       inkscape:export-filename="C:\Users\leand\Desktop\calculatrix\rect846.png"
       inkscape:export-xdpi="172.38994"
       inkscape:export-ydpi="172.38994"
       style="fill:#f8ac00;fill-opacity:1"
       inkscape:transform-center-x="-47.158411"
       inkscape:transform-center-y="-4.1123467">
      <path
         d="m 668.9,407.9 -1.1,0.8 c -0.2,0.2 -5.5,4.1 -8.3,6.3 l -12.6,10.1 16,2.5 c 1,0.2 2.5,0.3 4.7,0.5 27.4,2.4 43.7,7.2 48.2,14.3 7.9,12.3 7.4,26.1 -1.5,37.7 -10.1,13.2 -23,24.6 -37.7,37 -6.2,5.3 -13.6,9.7 -21.4,14.5 -3.8,2.3 -7.8,4.7 -11.8,7.4 l -22.7,14.7 27,-1.7 c 35.5,-2.2 84.5,-28.6 105,-56.5 12.6,-17.2 16.1,-38.2 9.2,-56.3 -6.5,-17.3 -21.4,-29.6 -40.8,-33.9 l -0.7,-0.1 c -6.1,-0.7 -12.3,-1.1 -18.6,-1.1 -18.5,0 -31.2,3.3 -31.7,3.4 z"
         id="path7900"
         style="fill:#f8ac00;fill-opacity:1" />
      <path
         d="m 472.7,398.9 c 6.3,5.9 12.8,12.1 18.9,18.3 l 4.4,4.5 5.8,-4.5 c 0.9,-0.7 1.8,-1.4 2.8,-2.2 l 5.2,-4 -3.6,-5.5 c -3.9,-5.8 -7.7,-11.6 -11.6,-17.4 -8.5,-12.8 -17.3,-26 -25.8,-39.1 -23.9,-37 -21.5,-67.6 7.9,-99.3 9.9,-10.7 21.5,-20.5 32.7,-30 4,-3.4 8.1,-6.9 12.1,-10.4 31.6,-27.6 62.2,-59.4 72.7,-104.5 7,-30.2 1,-55.6 -17.9,-75.7 l -17.9,-19 5.7,25.4 c 9,39.7 -2.1,74.3 -33.8,105.6 -6.4,6.3 -13.4,12.3 -20.3,18.1 -5,4.2 -10.1,8.5 -15,13 -6.8,6.3 -13.9,12.6 -20.7,18.7 -20,18 -40.7,36.6 -59.7,56.3 -15.8,16.3 -18.8,38.8 -8.9,64.9 14,36.6 41,62.1 67,86.8 z"
         id="path7902"
         style="fill:#f8ac00;fill-opacity:1" />
      <path
         d="m 390.6,484.3 h 0.5 c 0.8,0 1.5,0 2.3,0.1 l -7,3.5 c -9,4.5 -28,20.2 -26.2,37.5 1.3,12.5 12.6,21.5 33.5,26.9 18.7,4.8 41.9,7.2 68.9,7.2 0,0 0,0 0,0 76.4,0 161,-19.4 161.8,-19.6 l 5.5,-1.3 V 533 c 0,-2.5 0,-4.6 -18.1,-27.9 l -2.8,-3.6 -4.5,1.1 c -0.7,0.2 -69.1,16.4 -164.2,16.4 -7,0 -14,-0.1 -20.9,-0.3 -12.6,-0.3 -21.1,-3.2 -24.1,-8 -3.2,-5.4 0.5,-13.2 0.5,-13.2 l 6.7,-13 c 1.3,0 2.5,0 3.8,0 115.6,0 240,-35.1 241.3,-35.4 l -2.5,-13.9 c -1,0.1 -53.5,4.2 -107.4,8.2 4.5,-4.6 9,-8.9 13.4,-13 10,-9.5 19.4,-18.5 26.9,-29 14.9,-21.1 14.5,-44.2 -1,-65.2 -5.7,-7.7 -11.3,-16.1 -18.4,-27.3 -13.6,-21.6 -13,-34.4 2.5,-52.5 9.7,-11.4 21.7,-22.4 36.9,-33.8 12.7,-9.6 26.3,-18.4 40.7,-27.8 6.5,-4.3 13.3,-8.7 20.3,-13.3 l 24.5,-16.4 -29.3,3.4 c -2,0.2 -3.6,0.3 -5,0.4 -2.7,0.2 -5.1,0.3 -7.5,1.4 -8.3,3.7 -16.8,7.4 -25.1,11 -21.6,9.4 -44,19 -65,30.8 -15.7,8.9 -31,23.2 -42.9,40.3 -23.6,33.8 -19.6,70.5 12.3,112.1 21.8,28.5 22.1,33.1 4,62.7 -1.6,2.6 -1.2,4.9 -0.9,7.3 0.2,1.2 0.4,2.8 0.7,5.3 l 0.5,4.5 c -48.1,3.5 -94.2,6.8 -102.9,6.8 H 422 c -32.6,-0.8 -42.4,-4.4 -45.2,-6.1 1.5,-1.8 6.1,-6.1 19.6,-12.5 10.2,-4.9 20,-8.4 20.4,-8.6 l 5.2,-1.9 -1.1,-11.9 h -6.5 c -2.2,0 -26.8,6.4 -46.7,13.2 -42.9,14.7 -49.1,24.9 -49.5,33 -0.7,14.6 20.3,22.8 72.4,28 z"
         id="path7904"
         style="fill:#f8ac00;fill-opacity:1" />
      <path
         d="m 441.4,714.7 c -63.7,0 -96.5,-8.6 -96.8,-8.7 l -3.2,-0.9 c 9.8,0.3 20.3,0.5 31.5,0.5 0,0 0,0 0,0 64.6,0 152.9,-5.7 262.4,-17 h 0.2 c 61.2,-8.3 88.1,-28.8 92.7,-45.1 2.1,-7.2 0.1,-13.9 -5.4,-18.4 l -11.3,-9.4 -0.4,14.3 c -2.2,3.9 -20.6,13.7 -75.9,24.3 -38.1,7.3 -84.2,13.1 -112,14.1 -10.1,0.4 -20.8,0.5 -31.8,0.5 -37.8,0 -76.3,-2.1 -113.6,-4.2 -8.8,-0.5 -17.7,-1 -26.5,-1.4 h -0.1 c -31.2,-1.1 -34.3,-7.1 -34.3,-7.1 -0.1,-0.8 1.5,-5.1 11.4,-12.3 8,-5.8 17.8,-10.8 23.9,-13.2 l 24.6,-9.5 -26.1,-4.2 c -4.4,-0.7 -9.7,-1.1 -15.5,-1.1 -25.6,0 -73.3,7.6 -92.7,28.1 -5.8,6.1 -8.5,12.9 -8.1,20.1 0,0.2 0,0.7 0,1 -0.1,3.5 -0.3,10.7 6.5,17.8 10.9,11.2 37.3,18.2 80.3,21 l 16.8,14.2 c 1.5,1.3 38.7,31.8 125.6,31.8 27.1,0 56.5,-3 87.4,-9 52.9,-10.2 151.5,-38.7 208.5,-63.4 l -4.8,-13.4 C 610.8,706 504.9,714.7 441.4,714.7 Z"
         id="path7906"
         style="fill:#f8ac00;fill-opacity:1" />
      <path
         d="m 545.5,582.5 c -22.3,4.7 -43.5,7.1 -62.9,7.1 -49.6,0 -74.9,-15.4 -81.5,-20.1 l -4.6,-3.3 -32.5,28.2 5.9,5.4 c 1.4,1.3 36.1,32.3 117.7,32.3 38,0 80.4,-6.8 125.8,-20.2 l 25.5,-7.5 -91.8,-22.2 z"
         id="path7908"
         style="fill:#f8ac00;fill-opacity:1" />
      <path
         d="m 696,847 c 2,-25.1 -5.1,-33.5 -30.8,-32.4 -13,0.6 -25.8,3.8 -40,6 -1.3,-5.4 -2.7,-11.4 -4.3,-18 25.1,-9.1 49.4,-15.4 75.3,-9.2 18.1,4.3 29.9,15.5 30.5,33.9 1.2,36.3 0.3,72.7 0.3,110.4 -10,-1.8 -23.7,8.4 -25.9,-8.9 -15.2,3.9 -30.4,10.2 -46.1,11.4 -22.1,1.8 -36.2,-10 -40.3,-28.8 -4.7,-21.3 3.9,-43 23.3,-50.1 18.1,-6.7 37.6,-9.5 58,-14.3 z m 0.6,22.8 c -13.9,2 -25.9,2.8 -37.5,5.7 -11.6,2.9 -17.7,15.8 -14.3,27 3.6,11.9 14,17.4 26.7,14.4 21.2,-5.2 25.2,-10.3 25,-32.6 0.1,-3.6 0.1,-7.2 0.1,-14.5 z m -237.8,67.7 c -7.5,0 -14.3,0 -21.8,0 -1.3,-3.5 -2.6,-7.2 -4.2,-11.3 -1.5,0.2 -3,-0.1 -3.8,0.5 -12.9,9.5 -26.9,14.9 -43.2,14.1 -20.5,-1 -33.4,-9.7 -38.5,-26.7 -5.7,-19.4 0.5,-41.1 18,-49.9 13.4,-6.8 29.1,-9.2 44,-12.9 6,-1.5 12.5,-1.1 18.7,-1.5 3.3,-26.4 -4.7,-35.9 -29.6,-35.4 -6.8,0.1 -13.6,1.2 -20.3,2.4 -6.6,1.2 -13,3.1 -19.5,4.7 -7.1,-18.5 -7.5,-20.3 10.1,-24 17.9,-3.8 36.8,-6 54.9,-4.7 22.5,1.6 33.5,12.6 34.9,34.9 2.1,32.7 1.1,65.6 1.4,98.5 0,3.7 -0.7,7.2 -1.1,11.3 z M 428,870.1 c -12.7,1.8 -25,2.5 -36.6,5.4 -11.8,2.9 -17.2,15 -13.9,27.1 2.9,11 12.4,17.5 24,14.7 28.8,-7.2 30.7,-12 26.5,-47.2 z m 48.2,-74.8 c 1.7,-0.9 2.1,-1.3 2.5,-1.3 31.2,-1 30.9,-0.9 39.5,29.1 7.5,25.9 15.7,51.7 23.6,77.5 1.2,0.2 2.5,0.4 3.7,0.6 8.7,-35.4 17.4,-70.8 26.3,-106.8 8.7,0 18.5,0 31.5,0 -7.4,28 -13.7,54.7 -21.6,81 -5.2,17.4 -13,34 -18.8,51.2 -3.2,9.6 -8.9,13.1 -18.4,11.6 -1.3,-0.2 -2.8,-0.3 -4.1,0 C 525,941.4 518,934.7 513.8,919.7 502.3,878.2 489,837.1 476.2,795.3 Z M 277.4,990 c -4.9,-6 -9.5,-11.6 -15.3,-18.6 29.3,-13.7 31.7,-39.2 31.3,-66.8 -0.7,-48.4 -0.2,-96.7 -0.1,-145.1 0,-5 0,-9.9 0,-16.1 11.2,0 21.3,0 32.3,0 0.2,3.6 0.6,7.1 0.6,10.6 0,53.8 0.2,107.7 -0.2,161.5 -0.3,39.5 -11.2,56 -48.6,74.5 z"
         id="path7910"
         style="fill:#f8ac00;fill-opacity:1" />
    </g>
    <path
       d="m 102.16921,180.41071 c -0.21867,0.11726 -0.67676,0.37334 -0.72731,0.40653 -0.0291,0.0203 -0.12409,0.082 -0.21107,0.13705 -0.86513,0.54891 -1.640684,1.31071 -2.124174,2.0915 -0.16022,0.25589 -0.467053,0.8924 -0.576903,1.19711 -0.0469,0.13212 -0.0945,0.26232 -0.10547,0.28859 -0.009,0.0253 -0.0269,0.0806 -0.0372,0.12286 -0.009,0.0391 -0.0219,0.0806 -0.0262,0.0897 -0.0258,0.0427 -0.15666,0.54686 -0.23989,0.92094 -0.0904,0.41025 -0.2163,1.19543 -0.25372,1.6064 -0.0112,0.11528 -0.025,0.26465 -0.0305,0.33281 -0.0383,0.38799 -0.0782,1.40415 -0.0607,1.55975 0.001,0.0182 0.0107,0.0817 0.0168,0.13962 0.0287,0.26035 0.18487,0.59165 0.32963,0.70121 0.14711,0.10848 0.43768,0.0275 0.885933,-0.24736 0.25125,-0.15604 0.4219,-0.30224 0.54167,-0.47111 0.10499,-0.14554 0.21308,-0.3792 0.25888,-0.55534 0.0145,-0.0584 0.0306,-0.11274 0.0351,-0.12182 0.004,-0.008 0.0234,-0.0696 0.0401,-0.13602 0.0189,-0.0675 0.0379,-0.13501 0.0429,-0.14906 0.004,-0.0161 0.041,-0.12699 0.0767,-0.2469 0.11669,-0.38988 0.29196,-0.84017 0.44736,-1.14298 0.43371,-0.8556 0.85439,-1.33281 1.60055,-1.81384 0.12188,-0.0809 0.26168,-0.15637 0.71318,-0.39526 0.40314,-0.21369 0.47087,-0.24331 0.57529,-0.25979 0.26321,-0.0424 0.34463,0.0667 0.5261,0.71147 0.0221,0.0785 0.0635,0.2135 0.0879,0.29795 0.15672,0.52534 0.35267,1.20776 0.39792,1.3807 0.11199,0.4294 0.14125,0.5467 0.21715,0.83395 0.10197,0.39664 0.17655,0.69389 0.20135,0.80629 0.01,0.0466 0.0358,0.16113 0.0577,0.25367 0.02,0.0936 0.0625,0.27954 0.0925,0.41286 0.0298,0.13334 0.0655,0.3015 0.0795,0.37217 0.0135,0.0708 0.0399,0.20115 0.0575,0.28876 0.0439,0.21801 0.10342,0.52952 0.14307,0.76365 0.0174,0.10662 0.037,0.21908 0.0433,0.24893 0.009,0.0568 0.0736,0.48032 0.0823,0.55812 0.0123,0.0877 0.038,0.26311 0.0439,0.30704 0.0356,0.25926 0.0766,0.67326 0.11445,1.19847 0.0931,1.24599 -0.0733,2.52324 -0.51676,4.01319 -0.0285,0.0977 -0.0605,0.2065 -0.0721,0.24477 -0.01,0.0373 -0.022,0.0735 -0.0262,0.0826 -0.025,0.0515 -0.20551,0.71509 -0.2729,1.00676 -0.15144,0.64978 -0.17477,1.04941 -0.099,1.63871 0.0368,0.28012 0.21961,0.75084 0.38868,0.99877 0.38167,0.55491 0.99505,0.83421 1.72189,0.79071 0.62834,-0.0391 1.30543,-0.36346 1.90922,-0.91319 0.1454,-0.12956 0.44093,-0.4657 0.50071,-0.56416 0.24424,-0.40794 0.3187,-0.54376 0.37143,-0.68806 0.0351,-0.0939 0.0697,-0.17571 0.0764,-0.17887 0.01,-0.004 0.0235,-0.0416 0.0308,-0.0847 0.0102,-0.0422 0.0247,-0.0935 0.035,-0.11486 0.0102,-0.0213 0.033,-0.0929 0.052,-0.16028 0.20921,-0.71918 0.29836,-1.84053 0.22288,-2.80691 -0.0599,-0.76769 -0.24067,-1.94657 -0.45438,-2.93663 -0.22932,-1.07868 -0.42094,-1.89422 -0.66884,-2.85645 -0.0164,-0.0576 -0.0368,-0.13714 -0.0444,-0.17797 -0.0212,-0.0906 -0.0523,-0.2118 -0.16879,-0.64607 -0.0513,-0.1888 -0.10495,-0.39056 -0.11891,-0.44722 -0.0284,-0.1083 -0.1326,-0.4899 -0.19163,-0.70551 -0.0184,-0.0686 -0.0628,-0.23254 -0.0995,-0.3627 -0.0605,-0.21958 -0.46169,-1.63621 -0.55885,-1.97193 -0.0224,-0.0805 -0.0596,-0.20361 -0.0803,-0.27812 -0.0558,-0.19371 -0.1148,-0.39531 -0.17966,-0.60579 -0.0312,-0.10235 -0.0726,-0.24432 -0.0956,-0.31777 -0.0204,-0.0746 -0.0804,-0.27811 -0.13379,-0.45187 -0.35848,-1.18861 -0.36852,-1.23537 -0.33215,-1.38129 0.01,-0.0373 0.0583,-0.10941 0.10567,-0.15753 0.0881,-0.0931 0.0927,-0.0952 2.13065,-1.06448 1.92251,-0.91291 2.04975,-0.97297 2.16552,-0.98733 0.0835,-0.009 0.14783,3.8e-4 0.20102,0.0291 0.0765,0.0413 0.0847,0.056 0.14669,0.25853 0.0374,0.11813 0.0741,0.24826 0.0819,0.28907 0.0102,0.0397 0.0422,0.17204 0.073,0.2933 0.0329,0.12025 0.0829,0.31206 0.11127,0.42741 0.11907,0.47523 0.22886,0.89865 0.29552,1.1481 0.0141,0.0566 0.0391,0.1501 0.0537,0.20875 0.0744,0.29028 0.073,0.2863 0.25319,0.96909 0.17493,0.66191 0.29066,1.0872 0.34493,1.27696 0.0202,0.0677 0.049,0.17585 0.0652,0.23846 0.0181,0.0616 0.0499,0.17784 0.0728,0.25829 0.0221,0.0785 0.0543,0.18973 0.0689,0.24839 0.0141,0.0567 0.0483,0.17387 0.0728,0.2583 0.17294,0.58794 0.22569,0.76671 0.31124,1.0517 0.0543,0.17574 0.11988,0.3882 0.14372,0.47064 0.0238,0.0823 0.0787,0.26015 0.12222,0.39413 0.0435,0.13399 0.14418,0.44462 0.22284,0.69076 0.25194,0.79409 0.87276,2.23344 1.27963,2.97779 0.0506,0.0909 0.10817,0.19945 0.13007,0.23592 0.0204,0.0396 0.0717,0.1253 0.11335,0.19231 0.0423,0.069 0.0869,0.14394 0.10198,0.16958 0.0303,0.0582 0.21744,0.34683 0.28455,0.43923 0.63183,0.88397 1.1766,1.38297 1.88596,1.71997 0.0877,0.0429 0.17975,0.0837 0.2067,0.092 0.0262,0.006 0.0973,0.0336 0.15794,0.0613 0.19322,0.0844 0.68074,0.19365 0.99602,0.22508 0.91217,0.0891 1.78195,-0.1179 2.69431,-0.63993 0.4684,-0.27038 0.99695,-0.70011 1.39923,-1.14289 0.223,-0.24341 0.51228,-0.61643 0.61561,-0.78695 0.36669,-0.61794 0.57866,-1.04813 0.67715,-1.37554 0.0131,-0.0484 0.0359,-0.11287 0.0505,-0.14329 0.014,-0.0324 0.0226,-0.0646 0.0196,-0.0726 -0.003,-0.008 0.003,-0.0342 0.013,-0.0553 0.0882,-0.19616 0.21367,-0.93431 0.24152,-1.43208 0.0508,-0.94641 -0.0903,-2.32427 -0.32212,-3.12785 -0.16144,-0.55821 -0.60482,-0.7586 -1.15035,-0.51742 -0.37216,0.16389 -0.61213,0.43181 -0.68738,0.77168 -0.0152,0.0774 -0.0346,0.26688 -0.0418,0.42008 -0.0228,0.68969 -0.0925,1.07144 -0.2558,1.41544 -0.12283,0.26399 -0.13907,0.29039 -0.26633,0.45348 -0.40625,0.51487 -1.03018,0.86094 -1.68443,0.92869 -0.17754,0.0183 -0.43591,0.0115 -0.57572,-0.0162 -0.13455,-0.0277 -0.43836,-0.12547 -0.52601,-0.16838 -0.045,-0.0209 -0.1064,-0.0504 -0.13705,-0.0617 -0.10398,-0.0445 -0.46607,-0.34886 -0.60909,-0.51545 -0.27696,-0.3164 -0.53599,-0.73725 -0.75284,-1.21312 -0.30636,-0.67475 -0.94821,-2.45768 -1.29904,-3.61244 -0.1558,-0.50936 -0.34704,-1.15186 -0.37841,-1.26113 -0.0184,-0.0686 -0.0491,-0.17585 -0.0652,-0.23848 -0.26355,-0.95484 -0.51073,-1.92208 -0.67945,-2.66416 -0.27577,-1.20659 -0.2775,-1.23856 -0.0788,-1.44239 0.0696,-0.0727 0.21178,-0.14211 2.02505,-1.00988 1.71809,-0.82033 1.96576,-0.94448 2.08161,-1.03423 0.0734,-0.0559 0.22061,-0.16034 0.32758,-0.23199 0.10923,-0.0726 0.24286,-0.17793 0.29998,-0.23521 0.19126,-0.19558 0.28874,-0.45003 0.27783,-0.72582 -0.006,-0.1119 -0.0594,-0.27161 -0.4086,-1.2024 -0.26705,-0.71673 -0.42975,-1.12687 -0.49095,-1.23142 -0.16404,-0.29011 -0.4219,-0.43994 -0.73313,-0.42645 -0.34334,0.0122 0.15528,-0.21377 -8.40173,3.83084 -4.2784,2.02255 -7.82642,3.70158 -7.88723,3.73554 z"
       id="path7941"
       style="fill:#820094;fill-opacity:1;stroke:none;stroke-width:0.00228605"
       inkscape:export-filename="C:\Users\leand\Desktop\calculatrix\rect846.png"
       inkscape:export-xdpi="172.38994"
       inkscape:export-ydpi="172.38994"
       inkscape:transform-center-x="-4.2529258"
       inkscape:transform-center-y="41.713265" />
  </g>
</svg>
